<svg width="20" height="20" viewBox="0 0 20 20" fill="none" xmlns="http://www.w3.org/2000/svg">
<path d="M13.12 12.6019C12.1756 12.54 11.4331 11.7587 11.4331 10.8037C11.4331 10.7719 11.4337 10.74 11.4356 10.7081V10.7125C11.4337 10.6825 11.4325 10.6475 11.4325 10.6119C11.4325 9.65873 12.1762 8.87998 13.115 8.8231H13.12C14.0631 8.87435 14.8081 9.65123 14.8081 10.6025C14.8081 10.6412 14.8069 10.6794 14.8044 10.7175V10.7125C14.8062 10.7437 14.8075 10.7806 14.8075 10.8175C14.8075 11.7694 14.0631 12.5475 13.1244 12.6012H13.1194L13.12 12.6019ZM6.89125 12.6019C5.94687 12.54 5.20437 11.7587 5.20437 10.8037C5.20437 10.7719 5.205 10.74 5.20687 10.7081V10.7125C5.205 10.6825 5.20375 10.6475 5.20375 10.6119C5.20375 9.65873 5.9475 8.87998 6.88625 8.8231H6.89125C7.83437 8.87435 8.57937 9.65123 8.57937 10.6025C8.57937 10.6412 8.57812 10.6794 8.57562 10.7175V10.7125C8.5775 10.7425 8.57875 10.7775 8.57875 10.8131C8.57875 11.7662 7.835 12.545 6.89625 12.6019H6.89125ZM16.4956 4.0406C15.3937 3.5206 14.1137 3.10935 12.7737 2.87123L12.6806 2.85748C12.6775 2.85685 12.6737 2.85623 12.67 2.85623C12.6481 2.85623 12.6294 2.8681 12.6194 2.8856C12.4731 3.14248 12.3144 3.4631 12.1712 3.79185L12.1444 3.86123C11.5006 3.7581 10.7581 3.69935 10.0019 3.69935C9.24562 3.69935 8.50312 3.7581 7.77875 3.87123L7.85937 3.8606C7.69062 3.46685 7.52937 3.14685 7.35125 2.83685L7.37687 2.88498C7.36625 2.86685 7.34687 2.8556 7.325 2.8556C7.32187 2.8556 7.31812 2.8556 7.315 2.85623C5.88187 3.1081 4.60187 3.51873 3.40562 4.07935L3.5 4.03935C3.48937 4.04373 3.48062 4.05123 3.475 4.0606C1.69125 6.58623 0.623749 9.72873 0.623749 13.1206C0.623749 13.6875 0.653749 14.2469 0.711874 14.7981L0.706249 14.7294C0.708124 14.7475 0.717499 14.7625 0.730624 14.7731C2.06812 15.7737 3.62312 16.58 5.30125 17.1094L5.41125 17.1394C5.41625 17.1412 5.4225 17.1419 5.42875 17.1419C5.44875 17.1419 5.46625 17.1325 5.47687 17.1181C5.81125 16.6681 6.12937 16.1581 6.405 15.6231L6.43437 15.5606C6.43812 15.5531 6.44062 15.5437 6.44062 15.5337C6.44062 15.5081 6.42437 15.4869 6.40187 15.4781H6.40125C5.83125 15.2581 5.34937 15.0237 4.89062 14.755L4.93875 14.7812C4.92062 14.7706 4.90875 14.7512 4.90875 14.7294C4.90875 14.71 4.91812 14.6925 4.9325 14.6819C5.03062 14.6081 5.12937 14.5319 5.22312 14.4544C5.23312 14.4462 5.24625 14.4412 5.26 14.4412C5.26875 14.4412 5.27687 14.4431 5.28375 14.4462H5.28312C6.66312 15.1094 8.28312 15.4969 9.99312 15.4969C11.7031 15.4969 13.3237 15.1094 14.77 14.4175L14.7031 14.4462C14.7106 14.4425 14.7187 14.4406 14.7281 14.4406C14.7419 14.4406 14.755 14.4456 14.765 14.4537C14.8587 14.5312 14.9569 14.6087 15.0562 14.6819C15.0706 14.6931 15.08 14.7106 15.08 14.73C15.08 14.7519 15.0681 14.7706 15.0512 14.7812C14.6381 15.0281 14.1562 15.2619 13.6544 15.455L13.5887 15.4775C13.5662 15.4862 13.55 15.5081 13.55 15.5331C13.55 15.5431 13.5525 15.5525 13.5569 15.5606C13.87 16.1606 14.1875 16.6694 14.5387 17.1525L14.5137 17.1169C14.5244 17.1319 14.5425 17.1419 14.5619 17.1419C14.5681 17.1419 14.5744 17.1406 14.58 17.1394C16.3706 16.5819 17.9281 15.7756 19.3081 14.7444L19.2675 14.7737C19.2812 14.7637 19.29 14.7481 19.2919 14.7306C19.3462 14.2406 19.3769 13.6719 19.3769 13.0962C19.3769 9.71185 18.3069 6.57748 16.4875 4.01248L16.52 4.06123C16.515 4.05123 16.5062 4.0431 16.4962 4.03873L16.4956 4.0406Z" fill="white"/>
</svg>
