<svg width="20" height="20" viewBox="0 0 20 20" fill="none" xmlns="http://www.w3.org/2000/svg">
<path fill-rule="evenodd" clip-rule="evenodd" d="M3.60581 3.03171C3.33333 3.56649 3.33333 4.26655 3.33333 5.66669V14.3334C3.33333 15.7335 3.33333 16.4335 3.60581 16.9684C3.84549 17.4388 4.22794 17.8212 4.69835 18.0609C5.23313 18.3334 5.93319 18.3334 7.33333 18.3334H12.6667C14.0668 18.3334 14.7668 18.3334 15.3017 18.0609C15.7721 17.8212 16.1545 17.4388 16.3942 16.9684C16.6667 16.4335 16.6667 15.7335 16.6667 14.3334V8.16669C16.6667 7.93333 16.6667 7.81665 16.6212 7.72752C16.5813 7.64912 16.5176 7.58538 16.4392 7.54544C16.35 7.50002 16.2333 7.50002 16 7.50002H14.1667C12.3257 7.50002 10.8333 6.00764 10.8333 4.16669V2.33335C10.8333 2.1 10.8333 1.98332 10.7879 1.89419C10.748 1.81579 10.6842 1.75205 10.6058 1.7121C10.5167 1.66669 10.4 1.66669 10.1667 1.66669H7.33333C5.93319 1.66669 5.23313 1.66669 4.69835 1.93917C4.22794 2.17885 3.84549 2.5613 3.60581 3.03171ZM6.66666 10.8334C6.66666 10.3731 7.03976 10 7.49999 10H12.5C12.9602 10 13.3333 10.3731 13.3333 10.8334C13.3333 11.2936 12.9602 11.6667 12.5 11.6667H7.49999C7.03976 11.6667 6.66666 11.2936 6.66666 10.8334ZM7.49999 13.3334C7.03976 13.3334 6.66666 13.7064 6.66666 14.1667C6.66666 14.6269 7.03976 15 7.49999 15H9.99999C10.4602 15 10.8333 14.6269 10.8333 14.1667C10.8333 13.7064 10.4602 13.3334 9.99999 13.3334H7.49999Z" fill="#191C23"/>
<path d="M12.5 2.25595C12.5 1.9305 12.7638 1.66669 13.0892 1.66669C13.2455 1.66669 13.3954 1.72877 13.5059 1.83928L16.4941 4.82743C16.6046 4.93794 16.6667 5.08782 16.6667 5.2441C16.6667 5.56954 16.4028 5.83335 16.0774 5.83335H14.1667C13.2462 5.83335 12.5 5.08716 12.5 4.16669V2.25595Z" fill="#191C23"/>
</svg>
