<svg width="32" height="40" viewBox="0 0 32 40" fill="none" xmlns="http://www.w3.org/2000/svg">
<path fill-rule="evenodd" clip-rule="evenodd" d="M21.6959 2.85606C21.9959 3.15612 22.1645 3.56309 22.1645 3.98744L22.1645 8.23551C22.1645 9.11917 22.8808 9.83551 23.7645 9.83551H30.4C31.2837 9.83551 32 10.5519 32 11.4355V18.2095C32 19.0932 31.2837 19.8095 30.4 19.8095H23.7645C22.8808 19.8095 22.1645 20.5259 22.1645 21.4095V25.9347C22.1645 26.359 21.9959 26.766 21.6959 27.0661L19.5855 29.1764C19.2854 29.4765 18.8785 29.6451 18.4541 29.6451H1.6C0.716344 29.6451 0 28.9287 0 28.0451V23.6584C0 23.2341 0.168571 22.8271 0.468629 22.5271L2.85605 20.1397C3.1561 19.8396 3.56307 19.671 3.98742 19.671H20.426C21.3096 19.671 22.026 18.9547 22.026 18.071V11.574C22.026 10.6904 21.3096 9.97403 20.426 9.97403H1.6C0.716344 9.97403 0 9.25768 0 8.37403V1.6C0 0.716344 0.716347 0 1.6 0H18.1771C18.6014 0 19.0084 0.168571 19.3084 0.468629L21.6959 2.85606Z" fill="white"/>
<rect x="22.026" y="29.5065" width="9.97403" height="9.97403" rx="1.6" fill="white"/>
</svg>
