<svg width="20" height="20" viewBox="0 0 20 20" fill="none" xmlns="http://www.w3.org/2000/svg">
<path fill-rule="evenodd" clip-rule="evenodd" d="M9.99999 3.33332C6.31809 3.33332 3.33332 6.31809 3.33332 9.99999C3.33332 13.6819 6.31809 16.6667 9.99999 16.6667C13.6819 16.6667 16.6667 13.6819 16.6667 9.99999C16.6667 6.31809 13.6819 3.33332 9.99999 3.33332ZM1.66666 9.99999C1.66666 5.39762 5.39762 1.66666 9.99999 1.66666C14.6024 1.66666 18.3333 5.39762 18.3333 9.99999C18.3333 14.6024 14.6024 18.3333 9.99999 18.3333C5.39762 18.3333 1.66666 14.6024 1.66666 9.99999Z" fill="white"/>
<path d="M9.99999 5.83334C9.53975 5.83334 9.16666 6.20644 9.16666 6.66668C9.16666 7.12691 9.53975 7.50001 9.99999 7.50001C10.4602 7.50001 10.8333 7.12691 10.8333 6.66668C10.8333 6.20644 10.4602 5.83334 9.99999 5.83334Z" fill="white"/>
<path d="M10.8333 10C10.8333 9.53977 10.4602 9.16668 9.99999 9.16668C9.53975 9.16668 9.16666 9.53977 9.16666 10V13.3333C9.16666 13.7936 9.53975 14.1667 9.99999 14.1667C10.4602 14.1667 10.8333 13.7936 10.8333 13.3333V10Z" fill="white"/>
</svg>
